# xmcd
#
# Track frame offsets: 
#        150
#        19137
#        42457
#        62705
#        77082
#        92060
#        106600
#        134985
#        158225
#        173287
#        195605
#        232487
#
# Disc length: 3415 seconds
#
# Revision: 0
# Processed by: cddbd v1.5PL3 Copyright (c) Steve Scherf et al.
# Submitted via: ExactAudioCopy v0.90b4
#
DISCID=9f0d550c
DTITLE=Cami Thompson - No More Blues
DYEAR=1993
DGENRE=Blues
TTITLE0=No more blues (chega de saudade)
TTITLE1=One touch of heaven
TTITLE2=I just want to be loved by you
TTITLE3=Rhythm in my nursery rhme
TTITLE4=Sneaky suspicion
TTITLE5=Broken down kitchen blues
TTITLE6=Autumn Leaves
TTITLE7=Together
TTITLE8=There will never be another you
TTITLE9=Skylark
TTITLE10=I like the way you do your thing
TTITLE11=Way over yonder
EXTD=
EXTT0=
EXTT1=
EXTT2=
EXTT3=
EXTT4=
EXTT5=
EXTT6=
EXTT7=
EXTT8=
EXTT9=
EXTT10=
EXTT11=
PLAYORDER=
